<svg width="40" height="40" viewBox="0 0 40 40" fill="none" xmlns="http://www.w3.org/2000/svg">
<path d="M26.6667 16.6667C26.6667 18.4348 25.9643 20.1305 24.7141 21.3807C23.4638 22.631 21.7682 23.3333 20 23.3333C18.2319 23.3333 16.5362 22.631 15.286 21.3807C14.0358 20.1305 13.3334 18.4348 13.3334 16.6667C13.3334 14.8986 14.0358 13.2029 15.286 11.9526C16.5362 10.7024 18.2319 10 20 10C21.7682 10 23.4638 10.7024 24.7141 11.9526C25.9643 13.2029 26.6667 14.8986 26.6667 16.6667Z" fill="#527EE7"/>
<path fill-rule="evenodd" clip-rule="evenodd" d="M19.32 36.6533C10.4309 36.2967 3.33337 28.9767 3.33337 20C3.33337 10.795 10.795 3.33334 20 3.33334C29.205 3.33334 36.6667 10.795 36.6667 20C36.6667 29.205 29.205 36.6667 20 36.6667C19.9239 36.6672 19.8478 36.6672 19.7717 36.6667C19.6209 36.6667 19.47 36.6617 19.32 36.6533ZM9.30504 30.5167C9.18043 30.1588 9.13801 29.7775 9.18094 29.401C9.22387 29.0245 9.35105 28.6625 9.55302 28.3419C9.755 28.0213 10.0266 27.7503 10.3476 27.549C10.6687 27.3477 11.031 27.2213 11.4075 27.1792C17.9042 26.46 22.1359 26.525 28.6009 27.1942C28.978 27.2334 29.3411 27.3582 29.6627 27.5591C29.9842 27.7599 30.2557 28.0315 30.4565 28.3531C30.6572 28.6747 30.782 29.0379 30.8211 29.415C30.8603 29.7921 30.8129 30.1732 30.6825 30.5292C33.4533 27.7258 35.005 23.9416 35 20C35 11.7158 28.2842 5.00001 20 5.00001C11.7159 5.00001 5.00004 11.7158 5.00004 20C5.00004 24.0967 6.64254 27.81 9.30504 30.5167Z" fill="#527EE7"/>
</svg>
