<svg width="17" height="17" viewBox="0 0 17 17" fill="none" xmlns="http://www.w3.org/2000/svg">
<path d="M2.125 12.3675V14.5208C2.125 14.7192 2.28083 14.875 2.47917 14.875H4.6325C4.72458 14.875 4.81667 14.8396 4.88042 14.7688L12.6154 7.04084L9.95917 4.38459L2.23125 12.1125C2.16042 12.1833 2.125 12.2683 2.125 12.3675ZM14.6696 4.98667C14.7352 4.92114 14.7873 4.84331 14.8229 4.75762C14.8584 4.67193 14.8767 4.58007 14.8767 4.4873C14.8767 4.39453 14.8584 4.30267 14.8229 4.21698C14.7873 4.13129 14.7352 4.05345 14.6696 3.98792L13.0121 2.33042C12.9466 2.26476 12.8687 2.21266 12.783 2.17712C12.6973 2.14157 12.6055 2.12328 12.5127 2.12328C12.4199 2.12328 12.3281 2.14157 12.2424 2.17712C12.1567 2.21266 12.0789 2.26476 12.0133 2.33042L10.7171 3.62667L13.3733 6.28292L14.6696 4.98667Z" fill="white"/>
</svg>
