<svg width="29" height="29" viewBox="0 0 29 29" fill="none" xmlns="http://www.w3.org/2000/svg">
<g clip-path="url(#clip0_7_50)">
<path d="M15.6927 6.93583C16.1569 6.67247 16.521 6.26281 16.7279 5.77078C16.9349 5.27876 16.9731 4.73206 16.8367 4.21602C16.7002 3.69997 16.3968 3.24362 15.9737 2.9182C15.5506 2.59277 15.0316 2.41657 14.4979 2.41712C13.9641 2.41766 13.4455 2.5949 13.0231 2.92119C12.6006 3.24748 12.2981 3.70444 12.1627 4.22076C12.0273 4.73708 12.0666 5.2837 12.2746 5.7753C12.4825 6.26691 12.8474 6.67583 13.3122 6.93824L13.3002 6.95999C12.5087 8.61178 11.4091 10.9777 9.7114 11.8658C8.31698 12.5944 6.31598 12.2283 4.82973 11.9552C4.80589 11.6173 4.68781 11.2928 4.48887 11.0185C4.28994 10.7443 4.01812 10.5313 3.70426 10.4037C3.39041 10.2761 3.04707 10.2391 2.71322 10.2967C2.37937 10.3544 2.06836 10.5045 1.81549 10.73C1.56261 10.9554 1.378 11.2473 1.28259 11.5724C1.18717 11.8974 1.18479 12.2428 1.2757 12.5691C1.36661 12.8955 1.54717 13.1899 1.79691 13.4188C2.04664 13.6478 2.35554 13.8021 2.68857 13.8644L6.25073 23.0598C6.51491 23.7415 6.97903 24.3274 7.58219 24.7406C8.18535 25.1538 8.89934 25.3749 9.63044 25.375H19.3696C20.1007 25.3749 20.8147 25.1538 21.4179 24.7406C22.021 24.3274 22.4851 23.7415 22.7493 23.0598L26.3103 13.8644C26.6412 13.8028 26.9484 13.6503 27.1976 13.4239C27.4467 13.1976 27.6278 12.9063 27.7207 12.5827C27.8137 12.2592 27.8146 11.9162 27.7236 11.5921C27.6325 11.2681 27.453 10.9758 27.2051 10.748C26.9573 10.5202 26.6509 10.366 26.3204 10.3025C25.9898 10.239 25.6481 10.2689 25.3335 10.3887C25.0189 10.5085 24.744 10.7136 24.5394 10.9809C24.3348 11.2482 24.2087 11.5671 24.1751 11.9021C22.6539 12.099 20.6927 12.3504 19.2887 11.6169C17.6248 10.7469 16.5095 8.54412 15.6927 6.93583Z" fill="#FFC700"/>
</g>
<defs>
<clipPath id="clip0_7_50">
<rect width="29" height="29" fill="white"/>
</clipPath>
</defs>
</svg>
