<svg width="26" height="26" viewBox="0 0 26 26" fill="none" xmlns="http://www.w3.org/2000/svg">
<g clip-path="url(#clip0_64_193)">
<path d="M14.0692 6.21833C14.4855 5.98222 14.8119 5.61494 14.9974 5.17381C15.183 4.73269 15.2173 4.24255 15.0949 3.77989C14.9726 3.31723 14.7005 2.90808 14.3212 2.61632C13.9419 2.32456 13.4766 2.16659 12.998 2.16708C12.5195 2.16756 12.0546 2.32647 11.6758 2.61901C11.2971 2.91154 11.0258 3.32123 10.9044 3.78414C10.7831 4.24705 10.8183 4.73712 11.0048 5.17787C11.1912 5.61861 11.5183 5.98523 11.9351 6.2205L11.9242 6.24C11.2147 7.72092 10.2288 9.84208 8.70674 10.6383C7.45658 11.2916 5.66258 10.9633 4.33008 10.7185C4.3087 10.4155 4.20283 10.1246 4.02448 9.87869C3.84612 9.63282 3.60242 9.44186 3.32103 9.32748C3.03964 9.21309 2.73183 9.17987 2.43251 9.23157C2.1332 9.28327 1.85436 9.41783 1.62765 9.61998C1.40093 9.82213 1.23542 10.0838 1.14987 10.3752C1.06433 10.6667 1.06219 10.9763 1.1437 11.2689C1.2252 11.5615 1.38709 11.8254 1.61099 12.0307C1.83489 12.2359 2.11184 12.3743 2.41041 12.4302L5.60408 20.6743C5.84092 21.2855 6.25704 21.8108 6.7978 22.1812C7.33856 22.5517 7.97869 22.7499 8.63416 22.75H17.3658C18.0213 22.7499 18.6614 22.5517 19.2022 22.1812C19.743 21.8108 20.1591 21.2855 20.3959 20.6743L23.5885 12.4302C23.8852 12.375 24.1606 12.2382 24.384 12.0352C24.6073 11.8323 24.7698 11.5712 24.8531 11.2811C24.9363 10.991 24.9372 10.6835 24.8556 10.393C24.7739 10.1024 24.613 9.84037 24.3908 9.63616C24.1686 9.43194 23.8939 9.29364 23.5975 9.23674C23.3012 9.17984 22.9948 9.2066 22.7128 9.31402C22.4308 9.42144 22.1842 9.60527 22.0008 9.84491C21.8174 10.0846 21.7043 10.3705 21.6742 10.6708C20.3103 10.8474 18.5521 11.0728 17.2932 10.4152C15.8015 9.63517 14.8016 7.66025 14.0692 6.21833Z" fill="black" fill-opacity="0.5"/>
</g>
<defs>
<clipPath id="clip0_64_193">
<rect width="26" height="26" fill="white"/>
</clipPath>
</defs>
</svg>
