<svg width="79" height="80" viewBox="0 0 79 80" fill="none" xmlns="http://www.w3.org/2000/svg">
<path d="M77.0096 0.980403C78.2594 1.90618 79 3.38743 79 4.94583V56.7896C79 63.6095 72.3652 69.1333 64.1875 69.1333C56.0098 69.1333 49.375 63.6095 49.375 56.7896C49.375 49.9697 56.0098 44.4458 64.1875 44.4458C65.9156 44.4458 67.582 44.6927 69.125 45.1556V22.69L29.625 34.54V66.6646C29.625 73.4845 22.9902 79.0083 14.8125 79.0083C6.63477 79.0083 0 73.4845 0 66.6646C0 59.8447 6.63477 54.3208 14.8125 54.3208C16.5406 54.3208 18.207 54.5677 19.75 55.0306V19.7583C19.75 17.5827 21.185 15.654 23.268 15.0214L72.643 0.208919C74.1396 -0.238542 75.7598 0.0391921 77.0096 0.980403Z" fill="#699BF7"/>
</svg>
