<svg width="26" height="26" viewBox="0 0 26 26" fill="none" xmlns="http://www.w3.org/2000/svg">
<g clip-path="url(#clip0_64_223)">
<path d="M6.5 11.375C6.06902 11.375 5.6557 11.5462 5.35095 11.851C5.0462 12.1557 4.875 12.569 4.875 13C4.875 13.431 5.0462 13.8443 5.35095 14.149C5.6557 14.4538 6.06902 14.625 6.5 14.625C6.93098 14.625 7.3443 14.4538 7.64905 14.149C7.9538 13.8443 8.125 13.431 8.125 13C8.125 12.569 7.9538 12.1557 7.64905 11.851C7.3443 11.5462 6.93098 11.375 6.5 11.375ZM11.375 13C11.375 12.569 11.5462 12.1557 11.851 11.851C12.1557 11.5462 12.569 11.375 13 11.375C13.431 11.375 13.8443 11.5462 14.149 11.851C14.4538 12.1557 14.625 12.569 14.625 13C14.625 13.431 14.4538 13.8443 14.149 14.149C13.8443 14.4538 13.431 14.625 13 14.625C12.569 14.625 12.1557 14.4538 11.851 14.149C11.5462 13.8443 11.375 13.431 11.375 13ZM17.875 13C17.875 12.569 18.0462 12.1557 18.351 11.851C18.6557 11.5462 19.069 11.375 19.5 11.375C19.931 11.375 20.3443 11.5462 20.649 11.851C20.9538 12.1557 21.125 12.569 21.125 13C21.125 13.431 20.9538 13.8443 20.649 14.149C20.3443 14.4538 19.931 14.625 19.5 14.625C19.069 14.625 18.6557 14.4538 18.351 14.149C18.0462 13.8443 17.875 13.431 17.875 13Z" fill="black" fill-opacity="0.5"/>
<rect x="1.25" y="1.25" width="23.5" height="23.5" rx="11.75" stroke="black" stroke-opacity="0.5" stroke-width="2.5"/>
</g>
<defs>
<clipPath id="clip0_64_223">
<rect width="26" height="26" fill="white"/>
</clipPath>
</defs>
</svg>
