<svg width="24" height="26" viewBox="0 0 24 26" fill="none" xmlns="http://www.w3.org/2000/svg">
<path d="M10.17 20.5833C10.3194 20.5839 10.467 20.5482 10.6019 20.4788C10.7369 20.4094 10.8558 20.3082 10.95 20.1825L15.78 13.6825C15.927 13.4887 16.0074 13.2455 16.0074 12.9946C16.0074 12.7437 15.927 12.5005 15.78 12.3067L10.78 5.80667C10.6102 5.58544 10.3663 5.44631 10.1019 5.4199C9.83746 5.39349 9.57417 5.48195 9.36996 5.66584C9.16574 5.84972 9.03732 6.11396 9.01294 6.40042C8.98856 6.68688 9.07022 6.9721 9.23996 7.19334L13.71 13L9.38996 18.8067C9.26768 18.9657 9.19 19.1593 9.16612 19.3647C9.14224 19.57 9.17316 19.7785 9.25521 19.9654C9.33727 20.1523 9.46703 20.3098 9.62914 20.4193C9.79125 20.5288 9.97892 20.5858 10.17 20.5833Z" fill="black" fill-opacity="0.5"/>
</svg>
