<svg width="252" height="90" viewBox="0 0 252 90" fill="none" xmlns="http://www.w3.org/2000/svg">
<path d="M0 67C0 63.134 3.13401 60 7 60H21C24.866 60 28 63.134 28 67V90H0V67Z" fill="#527EE7"/>
<path d="M39 52C39 48.134 42.134 45 46 45H60C63.866 45 67 48.134 67 52V90H39V52Z" fill="#527EE7"/>
<path d="M76 82C76 78.134 79.134 75 83 75H97C100.866 75 104 78.134 104 82V90H76V82Z" fill="#527EE7"/>
<path d="M113 7C113 3.13401 116.134 0 120 0H134C137.866 0 141 3.13401 141 7V90H113V7Z" fill="#527EE7"/>
<path d="M150 37C150 33.134 153.134 30 157 30H171C174.866 30 178 33.134 178 37V90H150V37Z" fill="#527EE7"/>
<path d="M187 74C187 70.134 190.134 67 194 67H208C211.866 67 215 70.134 215 74V89.5H187V74Z" fill="#527EE7"/>
<path d="M224 59C224 55.134 227.134 52 231 52H245C248.866 52 252 55.134 252 59V89.5H224V59Z" fill="#527EE7"/>
</svg>
