<svg width="26" height="26" viewBox="0 0 26 26" fill="none" xmlns="http://www.w3.org/2000/svg">
<g opacity="0.5" clip-path="url(#clip0_64_207)">
<path d="M13 23.8333C14.4229 23.8352 15.8322 23.5558 17.1468 23.0113C18.4614 22.4667 19.6554 21.6677 20.6602 20.6602C21.6677 19.6554 22.4667 18.4614 23.0112 17.1468C23.5558 15.8322 23.8351 14.4229 23.8333 13C23.8351 11.5771 23.5557 10.1678 23.0112 8.85323C22.4666 7.53863 21.6677 6.3446 20.6602 5.33975C19.6554 4.33226 18.4614 3.53329 17.1468 2.98875C15.8322 2.4442 14.4229 2.16482 13 2.16667C11.5771 2.16485 10.1678 2.44424 8.8532 2.98879C7.5386 3.53333 6.34457 4.33229 5.33972 5.33975C4.33226 6.3446 3.5333 7.53863 2.98876 8.85323C2.44421 10.1678 2.16482 11.5771 2.16664 13C2.16479 14.4229 2.44417 15.8322 2.98871 17.1468C3.53326 18.4614 4.33223 19.6554 5.33972 20.6602C6.34457 21.6677 7.5386 22.4667 8.8532 23.0112C10.1678 23.5558 11.5771 23.8351 13 23.8333Z" stroke="black" stroke-width="2.5" stroke-linejoin="round"/>
<path d="M13 15.5052V13.3385C13.6428 13.3385 14.2711 13.1479 14.8056 12.7908C15.3401 12.4337 15.7566 11.9261 16.0026 11.3323C16.2486 10.7384 16.313 10.0849 16.1876 9.4545C16.0622 8.82406 15.7526 8.24497 15.2981 7.79045C14.8436 7.33592 14.2645 7.02639 13.634 6.90099C13.0036 6.77559 12.3501 6.83995 11.7563 7.08593C11.1624 7.33192 10.6548 7.74848 10.2977 8.28294C9.94061 8.8174 9.75 9.44575 9.75 10.0885" stroke="black" stroke-width="2.5" stroke-linecap="round" stroke-linejoin="round"/>
<path fill-rule="evenodd" clip-rule="evenodd" d="M12.9999 20.3802C13.3591 20.3802 13.7035 20.2375 13.9575 19.9836C14.2114 19.7296 14.3541 19.3852 14.3541 19.026C14.3541 18.6669 14.2114 18.3225 13.9575 18.0685C13.7035 17.8145 13.3591 17.6719 12.9999 17.6719C12.6408 17.6719 12.2963 17.8145 12.0424 18.0685C11.7884 18.3225 11.6458 18.6669 11.6458 19.026C11.6458 19.3852 11.7884 19.7296 12.0424 19.9836C12.2963 20.2375 12.6408 20.3802 12.9999 20.3802Z" fill="black"/>
</g>
<defs>
<clipPath id="clip0_64_207">
<rect width="26" height="26" fill="white"/>
</clipPath>
</defs>
</svg>
