<svg width="49" height="49" viewBox="0 0 49 49" fill="none" xmlns="http://www.w3.org/2000/svg">
<g clip-path="url(#clip0_31_627)">
<path d="M15.3125 9.18748C15.3125 6.75081 16.2804 4.41394 18.0034 2.69095C19.7264 0.967964 22.0633 0 24.5 0C26.9366 0 29.2735 0.967964 30.9965 2.69095C32.7195 4.41394 33.6874 6.75081 33.6874 9.18748V24.5C33.6874 26.9366 32.7195 29.2735 30.9965 30.9965C29.2735 32.7195 26.9366 33.6874 24.5 33.6874C22.0633 33.6874 19.7264 32.7195 18.0034 30.9965C16.2804 29.2735 15.3125 26.9366 15.3125 24.5V9.18748Z" fill="black"/>
<path d="M10.7188 19.9062C11.1249 19.9062 11.5144 20.0675 11.8015 20.3547C12.0887 20.6419 12.25 21.0313 12.25 21.4375V24.4999C12.25 27.7488 13.5406 30.8647 15.838 33.162C18.1353 35.4593 21.2511 36.7499 24.5 36.7499C27.7489 36.7499 30.8647 35.4593 33.162 33.162C35.4594 30.8647 36.75 27.7488 36.75 24.4999V21.4375C36.75 21.0313 36.9113 20.6419 37.1985 20.3547C37.4856 20.0675 37.8751 19.9062 38.2812 19.9062C38.6873 19.9062 39.0768 20.0675 39.364 20.3547C39.6511 20.6419 39.8125 21.0313 39.8125 21.4375V24.4999C39.8125 28.296 38.4025 31.9567 35.8561 34.772C33.3096 37.5872 29.8083 39.3562 26.0312 39.7359V45.9374H35.2187C35.6248 45.9374 36.0143 46.0987 36.3015 46.3859C36.5886 46.6731 36.75 47.0625 36.75 47.4686C36.75 47.8748 36.5886 48.2642 36.3015 48.5514C36.0143 48.8386 35.6248 48.9999 35.2187 48.9999H13.7813C13.3752 48.9999 12.9857 48.8386 12.6985 48.5514C12.4114 48.2642 12.25 47.8748 12.25 47.4686C12.25 47.0625 12.4114 46.6731 12.6985 46.3859C12.9857 46.0987 13.3752 45.9374 13.7813 45.9374H22.9688V39.7359C19.1917 39.3562 15.6904 37.5872 13.1439 34.772C10.5975 31.9567 9.18748 28.296 9.18753 24.4999V21.4375C9.18753 21.0313 9.34886 20.6419 9.63602 20.3547C9.92319 20.0675 10.3127 19.9062 10.7188 19.9062Z" fill="black"/>
</g>
<defs>
<clipPath id="clip0_31_627">
<rect width="48.6" height="48.6" fill="white" transform="scale(1.00823)"/>
</clipPath>
</defs>
</svg>
