<svg width="21" height="20" viewBox="0 0 21 20" fill="none" xmlns="http://www.w3.org/2000/svg">
<path d="M10.4407 0C11.8252 0 13.153 0.526784 14.132 1.46447C15.111 2.40215 15.661 3.67392 15.661 5C15.661 6.32608 15.111 7.59785 14.132 8.53553C13.153 9.47322 11.8252 10 10.4407 10C9.05616 10 7.72834 9.47322 6.74934 8.53553C5.77034 7.59785 5.22034 6.32608 5.22034 5C5.22034 3.67392 5.77034 2.40215 6.74934 1.46447C7.72834 0.526784 9.05616 0 10.4407 0ZM10.4407 12.5C16.2092 12.5 20.8814 14.7375 20.8814 17.5V20H0V17.5C0 14.7375 4.6722 12.5 10.4407 12.5Z" fill="black"/>
</svg>
