<svg width="35" height="35" viewBox="0 0 35 35" fill="none" xmlns="http://www.w3.org/2000/svg">
<path d="M32.0284 16.1349H33.2227V18.8651H32.0284V16.1349ZM29.6751 19.6645H30.8693V15.3355H29.6751V19.6645ZM27.3612 21.9037H28.5555V13.0963H27.3612V21.9037ZM25.1617 23.6316H26.3559V11.449H25.1617V23.6286V23.6316ZM22.8068 20.6565H24.001V14.3435H22.8068V20.6565ZM20.4146 25.4334H21.6089V9.29647H20.4109V25.4334H20.4146ZM18.0605 27.7471H19.2548V7.25293H18.0605V27.7471ZM15.7467 24.5831H16.941V10.4168H15.7467V24.5832V24.5831ZM13.353 20.5602H14.5473V14.589H13.353V20.5602ZM11.0393 19.1367H12.2335V15.858H11.0393V19.1421V19.1367ZM8.72546 20.8908H9.9197V14.1068H8.72546V20.893V20.8908ZM6.44896 24.1748H7.64319V10.437H6.44902V24.1772L6.44896 24.1748ZM4.1352 22.076H5.32943V12.806H4.1352V22.0784V22.076ZM1.77734 19.6645H2.97158V15.3355H1.77734V19.6645Z" fill="#527EE7"/>
</svg>
