<svg width="52" height="52" viewBox="0 0 52 52" fill="none" xmlns="http://www.w3.org/2000/svg">
<path d="M36.3996 20.7998C36.3996 23.558 35.3039 26.2032 33.3535 28.1536C31.4032 30.104 28.7579 31.1997 25.9997 31.1997C23.2415 31.1997 20.5962 30.104 18.6459 28.1536C16.6955 26.2032 15.5998 23.558 15.5998 20.7998C15.5998 18.0416 16.6955 15.3963 18.6459 13.4459C20.5962 11.4956 23.2415 10.3999 25.9997 10.3999C28.7579 10.3999 31.4032 11.4956 33.3535 13.4459C35.3039 15.3963 36.3996 18.0416 36.3996 20.7998Z" fill="#A5A5A5"/>
<path fill-rule="evenodd" clip-rule="evenodd" d="M24.9389 51.9786C11.072 51.4222 0 40.0032 0 25.9997C0 11.6401 11.6401 0 25.9997 0C40.3594 0 51.9994 11.6401 51.9994 25.9997C51.9994 40.3594 40.3594 51.9994 25.9997 51.9994C25.881 52.0002 25.7623 52.0002 25.6435 51.9994C25.4082 51.9994 25.1729 51.9916 24.9389 51.9786ZM9.3157 42.4055C9.1213 41.8473 9.05514 41.2524 9.12211 40.6651C9.18908 40.0778 9.38747 39.5131 9.70255 39.0129C10.0176 38.5128 10.4413 38.09 10.9421 37.776C11.443 37.462 12.0081 37.2648 12.5956 37.1991C22.7303 36.0772 29.3316 36.1786 39.4169 37.2225C40.0051 37.2837 40.5716 37.4784 41.0733 37.7917C41.5749 38.105 41.9984 38.5287 42.3116 39.0304C42.6248 39.5321 42.8193 40.0987 42.8804 40.6869C42.9415 41.2752 42.8676 41.8697 42.6642 42.425C46.9866 38.0517 49.4072 32.1486 49.3995 25.9997C49.3995 13.0766 38.9229 2.59997 25.9997 2.59997C13.0766 2.59997 2.59997 13.0766 2.59997 25.9997C2.59997 32.3904 5.16224 38.1832 9.3157 42.4055Z" fill="#A5A5A5"/>
</svg>
