<svg width="41" height="43" viewBox="0 0 41 43" fill="none" xmlns="http://www.w3.org/2000/svg">
<path d="M23.6262 34.0417C23.371 34.0426 23.1189 33.9835 22.8883 33.8688C22.6577 33.7541 22.4545 33.5866 22.2937 33.3787L14.0425 22.6287C13.7912 22.3082 13.6539 21.906 13.6539 21.491C13.6539 21.076 13.7912 20.6739 14.0425 20.3533L22.5842 9.60333C22.8741 9.23744 23.2908 9.00735 23.7425 8.96367C24.1943 8.91999 24.644 9.0663 24.9929 9.37041C25.3418 9.67453 25.5612 10.1115 25.6028 10.5853C25.6445 11.0591 25.505 11.5308 25.215 11.8967L17.5787 21.5L24.9587 31.1033C25.1676 31.3663 25.3003 31.6866 25.3411 32.0262C25.3819 32.3658 25.3291 32.7105 25.1889 33.0196C25.0488 33.3288 24.8271 33.5893 24.5501 33.7704C24.2732 33.9515 23.9526 34.0457 23.6262 34.0417Z" fill="white"/>
</svg>
