<svg width="70" height="74" viewBox="0 0 70 74" fill="none" xmlns="http://www.w3.org/2000/svg">
<path d="M5.25 35C5.25 27.1098 8.38437 19.5428 13.9636 13.9636C19.5428 8.38437 27.1098 5.25 35 5.25C42.8902 5.25 50.4572 8.38437 56.0364 13.9636C61.6156 19.5428 64.75 27.1098 64.75 35V42H56.875C56.1788 42 55.5111 42.2766 55.0188 42.7688C54.5266 43.2611 54.25 43.9288 54.25 44.625V67.375C54.25 68.824 55.426 70 56.875 70H59.5C62.2848 70 64.9555 68.8938 66.9246 66.9246C68.8937 64.9555 70 62.2848 70 59.5V35C70 15.6695 54.3305 0 35 0C15.6695 0 0 15.6695 0 35V59.5C0 62.2848 1.10625 64.9555 3.07538 66.9246C5.04451 68.8938 7.71523 70 10.5 70H13.125C13.8212 70 14.4889 69.7234 14.9812 69.2312C15.4734 68.7389 15.75 68.0712 15.75 67.375V44.625C15.75 43.9288 15.4734 43.2611 14.9812 42.7688C14.4889 42.2766 13.8212 42 13.125 42H5.25V35ZM37.625 34.125C37.625 33.4288 37.3484 32.7611 36.8561 32.2688C36.3639 31.7766 35.6962 31.5 35 31.5C34.3038 31.5 33.6361 31.7766 33.1438 32.2688C32.6516 32.7611 32.375 33.4288 32.375 34.125V70.875C32.375 71.5712 32.6516 72.2389 33.1438 72.7312C33.6361 73.2234 34.3038 73.5 35 73.5C35.6962 73.5 36.3639 73.2234 36.8561 72.7312C37.3484 72.2389 37.625 71.5712 37.625 70.875V34.125ZM23.625 42C24.3212 42 24.9889 42.2766 25.4811 42.7688C25.9734 43.2611 26.25 43.9288 26.25 44.625V60.375C26.25 61.0712 25.9734 61.7389 25.4811 62.2312C24.9889 62.7234 24.3212 63 23.625 63C22.9288 63 22.2611 62.7234 21.7688 62.2312C21.2766 61.7389 21 61.0712 21 60.375V44.625C21 43.9288 21.2766 43.2611 21.7688 42.7688C22.2611 42.2766 22.9288 42 23.625 42ZM49 44.625C49 43.9288 48.7234 43.2611 48.2311 42.7688C47.7389 42.2766 47.0712 42 46.375 42C45.6788 42 45.0111 42.2766 44.5188 42.7688C44.0266 43.2611 43.75 43.9288 43.75 44.625V60.375C43.75 61.0712 44.0266 61.7389 44.5188 62.2312C45.0111 62.7234 45.6788 63 46.375 63C47.0712 63 47.7389 62.7234 48.2311 62.2312C48.7234 61.7389 49 61.0712 49 60.375V44.625Z" fill="#699BF7"/>
</svg>
