<svg width="88" height="27" viewBox="0 0 88 27" fill="none" xmlns="http://www.w3.org/2000/svg">
<path d="M9.64397 11.9707L23.1206 11.0133L18.2397 12.7583L13.1528 14.0171L8.8867 15.2993L3.90145 16.0869L9.64397 11.9707Z" fill="#0FD3D5"/>
<path d="M17.3329 15.3157L3.86588 16.1138L14.0826 13.4292L23.221 10.9989L17.3329 15.3157Z" fill="#0FD3D5"/>
<path d="M3.87127 16.1277C1.73323 13.2122 2.37783 9.13509 5.31103 7.02132L13.6858 0.986188C14.4416 0.4415 15.501 0.60899 16.0519 1.36029L18.9256 5.27902L3.87127 16.1277V16.1277Z" fill="url(#paint0_linear_4_275)"/>
<path d="M23.1882 10.9966C25.2934 13.9356 24.6035 18.005 21.6473 20.0859L13.2043 26.0289C12.4424 26.5652 11.3849 26.386 10.8423 25.6285L8.01299 21.6785L23.1882 10.9966V10.9966Z" fill="url(#paint1_linear_4_275)"/>
<circle cx="14" cy="13" r="6" fill="white"/>
<path d="M17.5 13C17.5002 13.0849 17.4784 13.1684 17.4368 13.2424C17.3952 13.3164 17.3352 13.3783 17.2625 13.4222L12.76 16.1766C12.6841 16.2231 12.5971 16.2485 12.5081 16.2501C12.4192 16.2518 12.3313 16.2296 12.2538 16.186C12.1769 16.143 12.1129 16.0804 12.0683 16.0044C12.0237 15.9285 12.0001 15.8421 12 15.7541V10.246C12.0001 10.1579 12.0237 10.0715 12.0683 9.99562C12.1129 9.91971 12.1769 9.85706 12.2538 9.8141C12.3313 9.77046 12.4192 9.74832 12.5081 9.74996C12.5971 9.75161 12.6841 9.77699 12.76 9.82347L17.2625 12.5778C17.3352 12.6217 17.3952 12.6837 17.4368 12.7577C17.4784 12.8317 17.5002 12.9152 17.5 13Z" fill="#528DE7"/>
<path d="M35.41 18.776C36.166 18.776 36.748 18.614 37.156 18.29C37.564 17.954 37.768 17.468 37.768 16.832C37.768 16.304 37.624 15.86 37.336 15.5C37.06 15.14 36.604 14.864 35.968 14.672L34.51 14.24C33.598 13.964 32.926 13.55 32.494 12.998C32.062 12.434 31.846 11.744 31.846 10.928C31.846 10.304 31.966 9.74 32.206 9.236C32.458 8.732 32.854 8.33 33.394 8.03C33.946 7.73 34.666 7.58 35.554 7.58C36.094 7.58 36.652 7.646 37.228 7.778C37.804 7.898 38.386 8.096 38.974 8.372L38.47 9.722C37.894 9.47 37.372 9.29 36.904 9.182C36.448 9.062 36.01 9.002 35.59 9.002C34.906 9.002 34.372 9.146 33.988 9.434C33.616 9.71 33.43 10.172 33.43 10.82C33.43 11.288 33.556 11.684 33.808 12.008C34.06 12.32 34.51 12.578 35.158 12.782L36.616 13.214C38.44 13.754 39.352 14.918 39.352 16.706C39.352 17.738 39.04 18.578 38.416 19.226C37.792 19.862 36.79 20.18 35.41 20.18C34.846 20.18 34.246 20.114 33.61 19.982C32.986 19.838 32.338 19.616 31.666 19.316L32.152 17.984C32.788 18.272 33.358 18.476 33.862 18.596C34.378 18.716 34.894 18.776 35.41 18.776ZM43.0755 15.23C43.0755 16.358 43.2975 17.228 43.7415 17.84C44.1975 18.44 44.8935 18.74 45.8295 18.74C46.2375 18.74 46.6395 18.692 47.0355 18.596C47.4315 18.5 47.9055 18.332 48.4575 18.092L48.9795 19.424C48.3915 19.688 47.8335 19.88 47.3055 20C46.7775 20.12 46.2675 20.18 45.7755 20.18C44.3595 20.18 43.2855 19.736 42.5535 18.848C41.8215 17.96 41.4555 16.754 41.4555 15.23V12.53C41.4555 11.006 41.8215 9.8 42.5535 8.912C43.2855 8.024 44.3595 7.58 45.7755 7.58C46.2675 7.58 46.7775 7.64 47.3055 7.76C47.8455 7.88 48.3915 8.072 48.9435 8.336L48.4395 9.686C47.4675 9.254 46.5975 9.038 45.8295 9.038C44.8935 9.038 44.1975 9.338 43.7415 9.938C43.2975 10.538 43.0755 11.402 43.0755 12.53V15.23ZM53.1068 15.212V20H51.5408V7.76H55.3748C56.5268 7.76 57.4148 8.066 58.0388 8.678C58.6748 9.278 58.9928 10.082 58.9928 11.09V11.864C58.9928 12.584 58.8248 13.208 58.4888 13.736C58.1648 14.264 57.6968 14.654 57.0848 14.906C57.6008 15.734 58.0808 16.574 58.5248 17.426C58.9688 18.278 59.3768 19.136 59.7488 20H57.9488C57.2648 18.368 56.4668 16.772 55.5548 15.212H53.1068ZM55.3748 9.2H53.1068V13.772H55.3748C55.9868 13.772 56.4728 13.604 56.8328 13.268C57.1928 12.92 57.3728 12.452 57.3728 11.864V11.09C57.3728 10.49 57.1928 10.028 56.8328 9.704C56.4728 9.368 55.9868 9.2 55.3748 9.2ZM63.9174 20H62.3514V7.76H63.9174V20ZM67.7478 20V7.76H71.3478C72.5238 7.76 73.3878 8.048 73.9398 8.624C74.5038 9.188 74.7858 9.95 74.7858 10.91V11.306C74.7858 11.834 74.6658 12.302 74.4258 12.71C74.1858 13.118 73.8378 13.442 73.3818 13.682C74.0178 13.886 74.4978 14.222 74.8218 14.69C75.1578 15.146 75.3258 15.698 75.3258 16.346V16.742C75.3258 17.726 75.0378 18.518 74.4618 19.118C73.8978 19.706 73.0098 20 71.7978 20H67.7478ZM71.3478 9.2H69.3138V13.07H71.3478C71.9478 13.07 72.3978 12.92 72.6978 12.62C73.0098 12.308 73.1658 11.882 73.1658 11.342V10.91C73.1658 10.382 73.0098 9.968 72.6978 9.668C72.3978 9.356 71.9478 9.2 71.3478 9.2ZM71.7978 14.51H69.3138V18.578H71.7978C72.4338 18.578 72.9078 18.416 73.2198 18.092C73.5438 17.768 73.7058 17.318 73.7058 16.742V16.31C73.7058 15.758 73.5438 15.32 73.2198 14.996C72.9078 14.672 72.4338 14.51 71.7978 14.51ZM85.2872 7.76L81.5432 15.104V20H79.9772V15.104L76.2152 7.76H77.9072L80.8412 13.556L83.6672 7.76H85.2872Z" fill="black"/>
<defs>
<linearGradient id="paint0_linear_4_275" x1="2.98208" y1="13.3062" x2="16.8932" y2="2.50353" gradientUnits="userSpaceOnUse">
<stop stop-color="#528DE7"/>
<stop offset="0.560036" stop-color="#1CC2D9"/>
<stop offset="1" stop-color="#0FD3D5"/>
</linearGradient>
<linearGradient id="paint1_linear_4_275" x1="24.2377" y1="13.8673" x2="10.0591" y2="24.6363" gradientUnits="userSpaceOnUse">
<stop stop-color="#528DE7"/>
<stop offset="0.489691" stop-color="#1CC2D9"/>
<stop offset="1" stop-color="#0FD3D5"/>
</linearGradient>
</defs>
</svg>
