<svg width="1002" height="354" viewBox="0 0 1002 354" fill="none" xmlns="http://www.w3.org/2000/svg">
<path d="M125.729 156.949L301.424 144.395L237.793 167.275L171.475 183.779L115.857 200.59L50.8639 210.916L125.729 156.949Z" fill="#0FD3D5"/>
<path d="M225.97 200.806L50.4003 211.269L183.597 176.072L302.734 144.207L225.97 200.806Z" fill="#0FD3D5"/>
<path d="M50.4699 211.453C22.5962 173.227 31.0541 119.733 69.3613 91.9703L180.07 11.7365C189.014 5.25459 201.54 7.2351 208.048 16.16L246.734 69.2146L50.4699 211.453V211.453Z" fill="url(#paint0_linear_5_276)"/>
<path d="M302.306 144.178C329.751 182.711 320.699 236.107 282.086 263.441L170.483 342.444C161.468 348.826 148.965 346.707 142.557 337.71L104.466 284.23L302.306 144.178V144.178Z" fill="url(#paint1_linear_5_276)"/>
<circle cx="176" cy="177" r="79" fill="white"/>
<path d="M225.875 177C225.878 178.21 225.568 179.399 224.975 180.454C224.382 181.508 223.526 182.391 222.491 183.016L158.33 222.266C157.248 222.928 156.009 223.29 154.741 223.314C153.473 223.337 152.221 223.022 151.116 222.4C150.021 221.787 149.109 220.895 148.473 219.813C147.838 218.731 147.502 217.5 147.5 216.245V137.755C147.502 136.5 147.838 135.269 148.473 134.187C149.109 133.105 150.021 132.213 151.116 131.6C152.221 130.979 153.473 130.663 154.741 130.687C156.009 130.71 157.248 131.072 158.33 131.734L222.491 170.984C223.526 171.609 224.382 172.492 224.975 173.546C225.568 174.601 225.878 175.79 225.875 177Z" fill="#528DE7"/>
<path d="M435 224.4C443.4 224.4 449.867 222.6 454.4 219C458.933 215.267 461.2 209.867 461.2 202.8C461.2 196.933 459.6 192 456.4 188C453.333 184 448.267 180.933 441.2 178.8L425 174C414.867 170.933 407.4 166.333 402.6 160.2C397.8 153.933 395.4 146.267 395.4 137.2C395.4 130.267 396.733 124 399.4 118.4C402.2 112.8 406.6 108.333 412.6 105C418.733 101.667 426.733 100 436.6 100C442.6 100 448.8 100.733 455.2 102.2C461.6 103.533 468.067 105.733 474.6 108.8L469 123.8C462.6 121 456.8 119 451.6 117.8C446.533 116.467 441.667 115.8 437 115.8C429.4 115.8 423.467 117.4 419.2 120.6C415.067 123.667 413 128.8 413 136C413 141.2 414.4 145.6 417.2 149.2C420 152.667 425 155.533 432.2 157.8L448.4 162.6C468.667 168.6 478.8 181.533 478.8 201.4C478.8 212.867 475.333 222.2 468.4 229.4C461.467 236.467 450.333 240 435 240C428.733 240 422.067 239.267 415 237.8C408.067 236.2 400.867 233.733 393.4 230.4L398.8 215.6C405.867 218.8 412.2 221.067 417.8 222.4C423.533 223.733 429.267 224.4 435 224.4ZM520.172 185C520.172 197.533 522.639 207.2 527.572 214C532.639 220.667 540.372 224 550.772 224C555.305 224 559.772 223.467 564.172 222.4C568.572 221.333 573.839 219.467 579.972 216.8L585.772 231.6C579.239 234.533 573.039 236.667 567.172 238C561.305 239.333 555.639 240 550.172 240C534.439 240 522.505 235.067 514.372 225.2C506.239 215.333 502.172 201.933 502.172 185V155C502.172 138.067 506.239 124.667 514.372 114.8C522.505 104.933 534.439 100 550.172 100C555.639 100 561.305 100.667 567.172 102C573.172 103.333 579.239 105.467 585.372 108.4L579.772 123.4C568.972 118.6 559.305 116.2 550.772 116.2C540.372 116.2 532.639 119.533 527.572 126.2C522.639 132.867 520.172 142.467 520.172 155V185ZM631.631 184.8V238H614.231V102H656.831C669.631 102 679.498 105.4 686.431 112.2C693.498 118.867 697.031 127.8 697.031 139V147.6C697.031 155.6 695.165 162.533 691.431 168.4C687.831 174.267 682.631 178.6 675.831 181.4C681.565 190.6 686.898 199.933 691.831 209.4C696.765 218.867 701.298 228.4 705.431 238H685.431C677.831 219.867 668.965 202.133 658.831 184.8H631.631ZM656.831 118H631.631V168.8H656.831C663.631 168.8 669.031 166.933 673.031 163.2C677.031 159.333 679.031 154.133 679.031 147.6V139C679.031 132.333 677.031 127.2 673.031 123.6C669.031 119.867 663.631 118 656.831 118ZM751.748 238H734.348V102H751.748V238ZM794.309 238V102H834.309C847.376 102 856.976 105.2 863.109 111.6C869.376 117.867 872.509 126.333 872.509 137V141.4C872.509 147.267 871.176 152.467 868.509 157C865.843 161.533 861.976 165.133 856.909 167.8C863.976 170.067 869.309 173.8 872.909 179C876.643 184.067 878.509 190.2 878.509 197.4V201.8C878.509 212.733 875.309 221.533 868.909 228.2C862.643 234.733 852.776 238 839.309 238H794.309ZM834.309 118H811.709V161H834.309C840.976 161 845.976 159.333 849.309 156C852.776 152.533 854.509 147.8 854.509 141.8V137C854.509 131.133 852.776 126.533 849.309 123.2C845.976 119.733 840.976 118 834.309 118ZM839.309 177H811.709V222.2H839.309C846.376 222.2 851.643 220.4 855.109 216.8C858.709 213.2 860.509 208.2 860.509 201.8V197C860.509 190.867 858.709 186 855.109 182.4C851.643 178.8 846.376 177 839.309 177ZM989.191 102L947.591 183.6V238H930.191V183.6L888.391 102H907.191L939.791 166.4L971.191 102H989.191Z" fill="black"/>
<defs>
<linearGradient id="paint0_linear_5_276" x1="38.8775" y1="174.46" x2="221.009" y2="33.8246" gradientUnits="userSpaceOnUse">
<stop stop-color="#528DE7"/>
<stop offset="0.560036" stop-color="#1CC2D9"/>
<stop offset="1" stop-color="#0FD3D5"/>
</linearGradient>
<linearGradient id="paint1_linear_5_276" x1="315.988" y1="181.816" x2="130.376" y2="321.997" gradientUnits="userSpaceOnUse">
<stop stop-color="#528DE7"/>
<stop offset="0.489691" stop-color="#1CC2D9"/>
<stop offset="1" stop-color="#0FD3D5"/>
</linearGradient>
</defs>
</svg>
